<svg width="274" height="112" viewBox="0 0 274 112" fill="none" xmlns="http://www.w3.org/2000/svg">
<rect width="274" height="112" fill="#222222"/>
<path d="M103.368 81.42H105.366L107.94 93.246L110.532 81.42H112.512L112.782 96H111.144L110.982 85.416L108.516 96H107.364L104.916 85.416L104.754 96H103.098L103.368 81.42ZM118.743 96.162C117.315 96.162 116.289 95.76 115.665 94.956C115.053 94.14 114.747 92.964 114.747 91.428V85.902C114.747 84.39 115.059 83.244 115.683 82.464C116.307 81.684 117.327 81.294 118.743 81.294C120.159 81.294 121.173 81.69 121.785 82.482C122.409 83.262 122.721 84.402 122.721 85.902V91.446C122.721 92.958 122.409 94.122 121.785 94.938C121.161 95.754 120.147 96.162 118.743 96.162ZM118.743 94.56C119.499 94.56 120.009 94.338 120.273 93.894C120.537 93.45 120.669 92.778 120.669 91.878V85.488C120.669 84.6 120.537 83.946 120.273 83.526C120.009 83.094 119.499 82.878 118.743 82.878C117.975 82.878 117.459 83.094 117.195 83.526C116.931 83.946 116.799 84.6 116.799 85.488V91.878C116.799 92.778 116.931 93.45 117.195 93.894C117.459 94.338 117.975 94.56 118.743 94.56ZM128.158 96.162C126.934 96.162 125.998 95.784 125.35 95.028C124.714 94.272 124.36 93.234 124.288 91.914L126.088 91.428C126.148 92.364 126.328 93.12 126.628 93.696C126.94 94.272 127.45 94.56 128.158 94.56C128.686 94.56 129.082 94.416 129.346 94.128C129.622 93.828 129.76 93.402 129.76 92.85C129.76 92.25 129.634 91.752 129.382 91.356C129.13 90.96 128.728 90.522 128.176 90.042L125.728 87.882C125.236 87.45 124.876 86.988 124.648 86.496C124.432 85.992 124.324 85.38 124.324 84.66C124.324 83.592 124.63 82.764 125.242 82.176C125.854 81.588 126.688 81.294 127.744 81.294C128.896 81.294 129.766 81.6 130.354 82.212C130.942 82.824 131.296 83.772 131.416 85.056L129.688 85.524C129.628 84.672 129.46 84.018 129.184 83.562C128.92 83.094 128.44 82.86 127.744 82.86C127.228 82.86 126.832 82.998 126.556 83.274C126.28 83.538 126.142 83.934 126.142 84.462C126.142 84.894 126.214 85.26 126.358 85.56C126.502 85.848 126.748 86.142 127.096 86.442L129.562 88.602C130.198 89.166 130.702 89.778 131.074 90.438C131.458 91.098 131.65 91.848 131.65 92.688C131.65 93.756 131.326 94.602 130.678 95.226C130.03 95.85 129.19 96.162 128.158 96.162ZM134.83 82.932H132.364V81.42H139.258V82.932H136.864V96H134.83V82.932ZM144.389 96.162C142.961 96.162 141.935 95.76 141.311 94.956C140.699 94.14 140.393 92.964 140.393 91.428V85.902C140.393 84.39 140.705 83.244 141.329 82.464C141.953 81.684 142.973 81.294 144.389 81.294C145.805 81.294 146.819 81.69 147.431 82.482C148.055 83.262 148.367 84.402 148.367 85.902V91.446C148.367 92.958 148.055 94.122 147.431 94.938C146.807 95.754 145.793 96.162 144.389 96.162ZM144.389 94.56C145.145 94.56 145.655 94.338 145.919 93.894C146.183 93.45 146.315 92.778 146.315 91.878V85.488C146.315 84.6 146.183 83.946 145.919 83.526C145.655 83.094 145.145 82.878 144.389 82.878C143.621 82.878 143.105 83.094 142.841 83.526C142.577 83.946 142.445 84.6 142.445 85.488V91.878C142.445 92.778 142.577 93.45 142.841 93.894C143.105 94.338 143.621 94.56 144.389 94.56ZM150.366 81.42H153.3C154.776 81.42 155.856 81.726 156.54 82.338C157.236 82.938 157.584 83.922 157.584 85.29C157.584 87.162 156.984 88.296 155.784 88.692L157.854 96H155.892L153.984 89.16H152.4V96H150.366V81.42ZM153.174 87.702C154.05 87.702 154.674 87.528 155.046 87.18C155.43 86.832 155.622 86.202 155.622 85.29C155.622 84.69 155.556 84.222 155.424 83.886C155.292 83.538 155.058 83.286 154.722 83.13C154.386 82.962 153.912 82.878 153.3 82.878H152.4V87.702H153.174ZM163.174 96.18C161.854 96.18 160.9 95.766 160.312 94.938C159.724 94.098 159.43 92.856 159.43 91.212V86.334C159.43 85.206 159.544 84.282 159.772 83.562C160.012 82.83 160.414 82.272 160.978 81.888C161.554 81.492 162.34 81.294 163.336 81.294C164.68 81.294 165.646 81.636 166.234 82.32C166.834 83.004 167.134 84.078 167.134 85.542V86.082H165.226V85.632C165.226 84.936 165.184 84.402 165.1 84.03C165.016 83.646 164.836 83.358 164.56 83.166C164.296 82.974 163.9 82.878 163.372 82.878C162.808 82.878 162.388 83.01 162.112 83.274C161.836 83.526 161.656 83.868 161.572 84.3C161.5 84.732 161.464 85.308 161.464 86.028V91.428C161.464 92.544 161.596 93.348 161.86 93.84C162.136 94.32 162.658 94.56 163.426 94.56C164.182 94.56 164.698 94.296 164.974 93.768C165.262 93.24 165.406 92.394 165.406 91.23V90.222H163.552V88.782H167.242V96H165.964L165.766 94.326C165.31 95.562 164.446 96.18 163.174 96.18Z" fill="#C9B884"/>
<path d="M133.5 63L143.026 44.25H123.974L133.5 63Z" fill="#C9B884"/>
<path d="M133.5 60L140.428 45.75H126.572L133.5 60Z" fill="#222222"/>
<path d="M109.5 14L133.5 51L158.5 14" stroke="#C9B884" stroke-width="2"/>
<path d="M116.5 14L133.5 39L150.5 14" stroke="#C9B884" stroke-width="2"/>
<path d="M127.5 22L133.5 31L139.5 22" stroke="#C9B884" stroke-width="2"/>
<path d="M155.5 29L160.696 38H150.304L155.5 29Z" fill="#C9B884"/>
<path d="M112.5 38L117.696 47H107.304L112.5 38Z" fill="#C9B884"/>
<path d="M112.5 29L117.696 38H107.304L112.5 29Z" fill="#C9B884"/>
<path d="M155.5 38L160.696 47H150.304L155.5 38Z" fill="#C9B884"/>
<path d="M104 63L112.5 52.5L121 63" stroke="#C9B884" stroke-width="2"/>
<path d="M146.5 62.5L155.5 52L163.5 62.5" stroke="#C9B884" stroke-width="2"/>
<path d="M147.5 74L155.5 63L163.5 74" stroke="#C9B884" stroke-width="2"/>
<path d="M112.5 31L115.964 37H109.036L112.5 31Z" fill="#222222"/>
<path d="M155.5 40L158.964 46H152.036L155.5 40Z" fill="#222222"/>
<path d="M155.5 31L158.964 37H152.036L155.5 31Z" fill="#222222"/>
<path d="M112.5 40L115.964 46H109.036L112.5 40Z" fill="#222222"/>
<path d="M104.5 74L112.5 63L120.5 74" stroke="#C9B884" stroke-width="2"/>
<line x1="112.5" y1="18" x2="112.5" y2="63" stroke="#C9B884" stroke-width="2"/>
<line x1="155.5" y1="18" x2="155.5" y2="63" stroke="#C9B884" stroke-width="2"/>
<line x1="104.5" y1="18" x2="124.5" y2="18" stroke="#C9B884" stroke-width="2"/>
<line x1="104.5" y1="18" x2="124.5" y2="18" stroke="#C9B884" stroke-width="2"/>
<line x1="143.5" y1="18" x2="163.5" y2="18" stroke="#C9B884" stroke-width="2"/>
</svg>
